<?xml version="1.0" standalone="no"?>
<!DOCTYPE svg PUBLIC "-//W3C//DTD SVG 20010904//EN"
 "http://www.w3.org/TR/2001/REC-SVG-20010904/DTD/svg10.dtd">
<svg version="1.0" xmlns="http://www.w3.org/2000/svg"
 width="700.000000pt" height="828.000000pt" viewBox="0 0 700.000000 828.000000"
 preserveAspectRatio="xMidYMid meet">

<g transform="translate(0.000000,828.000000) scale(0.100000,-0.100000)"
fill="#000000" stroke="none">
<path d="M3710 7511 c-121 -39 -199 -146 -200 -272 0 -125 53 -214 157 -266
47 -22 71 -28 133 -28 91 0 147 24 214 92 l45 46 28 -18 c62 -40 149 -142 191
-223 56 -106 115 -338 94 -367 -4 -6 -34 -19 -67 -29 -33 -9 -115 -44 -181
-77 -67 -32 -128 -59 -135 -59 -8 0 -36 28 -64 61 -140 171 -357 349 -528 435
-79 40 -263 104 -299 104 -30 0 -50 -22 -115 -125 -92 -147 -147 -279 -189
-457 -10 -43 -22 -78 -27 -78 -5 0 -48 37 -96 82 -233 221 -542 427 -830 554
-232 102 -557 192 -806 223 -49 6 -106 14 -126 16 -24 3 -41 0 -48 -9 -6 -7
-29 -67 -50 -132 -131 -401 -144 -875 -35 -1309 51 -201 148 -419 265 -595
109 -164 349 -388 545 -507 156 -95 443 -194 659 -228 61 -9 116 -19 124 -21
8 -3 -26 -28 -75 -56 -364 -208 -627 -484 -794 -831 -246 -510 -237 -1060 25
-1493 30 -49 55 -101 55 -113 0 -13 -20 -114 -44 -225 -63 -285 -62 -276 -40
-276 11 0 126 29 257 65 131 36 246 65 255 65 9 0 52 -15 97 -34 44 -19 141
-51 215 -71 115 -31 162 -38 319 -48 276 -17 482 10 740 95 356 118 677 338
917 629 l67 80 46 -6 c41 -6 51 -3 89 25 l43 31 35 -30 c43 -38 80 -40 150 -7
60 28 184 142 249 229 152 202 237 475 237 762 0 151 -12 233 -52 358 -30 93
-30 107 -3 107 30 0 222 69 300 109 200 100 420 286 543 458 78 111 182 321
215 438 56 195 74 381 56 579 -21 225 -78 409 -185 597 -192 334 -476 575
-812 688 -48 16 -90 33 -96 39 -13 13 8 165 33 249 42 134 109 239 199 307
l50 38 43 -45 c64 -68 117 -91 208 -92 67 0 84 4 145 35 119 61 179 179 153
301 -14 68 -30 99 -77 151 -55 61 -120 88 -212 88 -124 0 -206 -51 -268 -165
-21 -39 -40 -57 -89 -85 -93 -53 -165 -121 -227 -213 -92 -138 -135 -256 -159
-438 l-13 -94 -184 -6 c-118 -4 -187 -2 -192 4 -3 6 -9 34 -13 64 -12 99 -55
238 -105 338 -78 159 -192 282 -327 352 -38 20 -56 38 -72 70 -28 57 -86 120
-135 145 -45 23 -179 34 -226 19z m167 -216 c27 -30 29 -74 8 -115 -21 -41
-86 -56 -133 -31 -50 27 -53 123 -4 162 36 28 98 21 129 -16z m1894 12 c29
-19 34 -29 37 -68 8 -119 -138 -150 -182 -38 -20 49 -15 70 25 104 38 31 76
32 120 2z m-4531 -439 c409 -92 785 -268 1086 -508 313 -250 565 -526 710
-775 31 -55 80 -138 107 -185 74 -127 139 -299 109 -289 -6 2 -44 47 -84 99
-307 399 -533 676 -631 773 -110 107 -152 137 -103 72 15 -19 97 -133 183
-253 85 -119 163 -226 173 -237 60 -68 319 -488 347 -563 14 -38 -594 554
-752 732 -60 67 -73 78 -89 69 -16 -9 -13 -15 32 -70 28 -33 109 -123 180
-199 175 -188 261 -290 341 -409 135 -200 165 -264 110 -234 -91 48 -587 510
-728 677 -28 34 -60 62 -68 62 -13 0 -11 -6 9 -27 14 -16 34 -41 44 -58 10
-16 50 -73 89 -125 39 -52 125 -176 192 -275 67 -99 162 -225 212 -280 50 -55
91 -103 91 -107 0 -17 -31 -5 -135 53 -236 130 -416 254 -580 398 -175 153
-146 99 65 -121 128 -134 222 -214 365 -306 55 -36 102 -67 104 -69 2 -2 1 -6
-3 -10 -10 -10 -164 41 -296 99 -188 82 -340 164 -424 228 -44 33 -82 60 -85
60 -3 0 42 -48 99 -106 209 -211 386 -341 562 -415 l93 -38 -57 -1 c-82 0
-267 26 -385 55 -409 99 -771 361 -969 699 -101 172 -162 351 -215 629 -30
159 -37 460 -15 617 19 130 63 335 78 364 12 22 39 19 238 -26z m2033 -229
c185 -93 378 -252 491 -408 l46 -63 -93 -88 c-50 -49 -114 -120 -142 -159 -27
-38 -53 -70 -58 -70 -4 -1 -24 25 -44 57 -20 31 -58 84 -85 117 -27 33 -56 68
-64 78 -7 9 -21 17 -30 17 -13 0 -12 -5 6 -30 56 -79 151 -347 136 -386 -10
-27 -24 -14 -65 60 -22 41 -67 109 -100 152 -58 78 -167 182 -178 171 -3 -4
24 -55 60 -115 117 -195 197 -373 197 -439 0 -27 0 -27 -18 -8 -10 11 -45 63
-77 115 -60 97 -188 275 -263 365 -27 31 -42 60 -42 77 0 28 28 134 82 313 27
90 93 240 120 273 16 19 32 15 121 -29z m1717 -323 c263 -40 498 -162 701
-365 195 -194 315 -428 364 -707 19 -112 19 -332 0 -454 -67 -413 -366 -789
-754 -951 -159 -66 -394 -107 -546 -94 -394 33 -737 202 -958 472 -144 176
-208 296 -268 507 -31 107 -44 421 -24 536 48 264 171 497 365 690 213 213
475 331 825 373 74 9 208 6 295 -7z m-1548 -1934 c28 -63 181 -282 250 -358
67 -74 67 -75 103 -179 36 -107 69 -415 44 -415 -6 0 -68 38 -138 84 -277 185
-455 426 -531 721 -32 124 -32 150 2 161 38 12 233 41 242 36 4 -2 17 -25 28
-50z m-676 -229 c1 -130 19 -214 74 -347 131 -315 443 -622 802 -791 59 -27
106 -53 105 -57 -1 -4 -78 -69 -171 -144 l-169 -135 -71 36 c-187 98 -396 259
-521 402 -273 312 -424 717 -369 990 2 13 23 32 51 48 51 29 241 113 258 114
7 1 11 -43 11 -116z m-690 -395 c-15 -210 73 -485 232 -727 160 -243 406 -475
670 -631 50 -30 92 -58 92 -61 0 -4 -24 -22 -52 -40 -29 -17 -110 -67 -180
-110 l-127 -78 -93 61 c-133 87 -200 140 -307 243 -163 157 -282 321 -376 518
-65 136 -100 240 -121 361 -8 50 -19 117 -25 149 -9 54 -8 61 15 101 43 74
112 159 189 234 41 39 78 72 82 72 4 0 5 -42 1 -92z m2125 -390 c68 -80 222
-198 282 -217 67 -22 70 -33 64 -278 -4 -175 -9 -234 -25 -298 -21 -83 -68
-196 -96 -230 -16 -20 -17 -19 -56 25 -22 25 -62 88 -89 140 -104 203 -160
454 -161 710 0 106 8 220 16 220 2 0 31 -33 65 -72z m779 -499 c-24 -118 -67
-226 -136 -340 -53 -87 -164 -206 -164 -175 0 10 14 34 30 53 38 43 122 210
155 307 14 41 30 110 36 153 6 43 13 93 15 111 3 19 21 50 42 74 l37 41 3 -60
c2 -34 -6 -106 -18 -164z m-3405 -74 c116 -349 361 -679 664 -897 92 -66 92
-67 69 -82 -13 -8 -83 -36 -156 -62 l-133 -46 -55 37 c-114 79 -250 255 -325
423 -69 152 -109 342 -109 512 0 96 8 205 15 198 2 -2 15 -39 30 -83z m2381
-800 c7 -16 -14 -35 -149 -137 -88 -67 -89 -68 -152 -68 -35 0 -66 4 -69 8 -3
5 23 26 57 48 34 21 105 67 157 101 96 63 145 78 156 48z"/>
<path d="M4395 5774 c-95 -30 -158 -94 -190 -191 -14 -44 -16 -84 -13 -255 3
-185 6 -207 26 -253 27 -59 82 -119 137 -148 63 -34 182 -31 257 6 32 16 73
46 92 69 60 70 69 108 73 338 4 189 3 209 -16 260 -27 72 -67 119 -131 154
-66 36 -160 44 -235 20z m170 -135 c86 -24 144 -98 145 -186 0 -81 -40 -123
-118 -123 -55 0 -138 45 -173 93 -55 76 -29 186 51 214 44 15 47 15 95 2z"/>
<path d="M5425 5781 c-79 -20 -145 -73 -183 -145 -27 -50 -27 -54 -30 -278
l-4 -227 28 -61 c100 -224 411 -225 521 -2 l28 57 0 220 c0 210 -1 222 -24
272 -27 60 -84 117 -146 144 -49 22 -146 32 -190 20z m192 -158 c59 -27 113
-109 113 -170 0 -34 -35 -95 -63 -110 -60 -31 -169 5 -226 74 -109 132 17 280
176 206z"/>
<path d="M3662 5342 c-74 -179 -85 -235 -79 -407 4 -122 10 -166 31 -238 53
-177 148 -323 325 -497 262 -258 544 -380 874 -380 263 0 463 63 698 218 133
89 184 134 259 233 147 196 230 453 230 714 0 141 -11 296 -20 290 -4 -2 -10
-53 -14 -112 -21 -323 -102 -536 -261 -683 -175 -162 -384 -265 -616 -306
-119 -21 -334 -14 -459 15 -254 58 -498 184 -660 343 -108 105 -141 188 -186
463 -9 55 -19 102 -22 105 -10 10 8 -288 23 -365 41 -214 28 -240 -41 -84 -69
156 -78 207 -79 419 0 159 3 197 23 274 12 49 21 91 19 93 -3 2 -23 -41 -45
-95z"/>
<path d="M4354 4736 c-53 -53 -45 -126 13 -126 15 0 47 -22 86 -58 76 -70 158
-121 257 -158 69 -26 86 -28 215 -28 125 0 148 3 220 27 107 36 171 75 254
152 52 50 75 65 98 65 39 0 53 16 53 61 0 48 -53 99 -104 99 -41 0 -54 -14
-58 -65 -3 -40 -3 -40 -108 -93 -61 -31 -134 -59 -175 -67 -102 -21 -253 -19
-355 5 -91 22 -269 103 -271 123 -1 6 0 26 1 44 3 61 -72 73 -126 19z"/>
<path d="M991 4584 c-26 -33 -26 -49 -1 -74 25 -25 62 -26 83 -2 23 25 21 58
-3 82 -27 27 -55 25 -79 -6z"/>
<path d="M727 4267 c-3 -9 -3 -25 0 -37 4 -17 12 -20 37 -18 27 3 31 7 31 33
0 26 -4 30 -31 33 -21 2 -33 -2 -37 -11z"/>
<path d="M5996 3769 c-32 -25 -36 -77 -7 -103 29 -27 91 -18 110 15 19 33 1
81 -35 98 -33 15 -37 14 -68 -10z"/>
<path d="M957 3662 c-23 -25 -21 -58 3 -82 24 -24 38 -25 68 -4 28 19 29 57 2
84 -25 25 -52 26 -73 2z"/>
<path d="M927 3297 c-45 -42 -56 -91 -33 -152 10 -24 29 -51 43 -60 113 -74
260 55 198 175 -25 49 -62 70 -121 70 -46 0 -57 -4 -87 -33z"/>
<path d="M5984 3265 c-15 -23 -15 -27 0 -50 29 -44 86 -28 86 25 0 53 -57 69
-86 25z"/>
<path d="M5895 2730 c-15 -17 -16 -24 -7 -45 20 -43 102 -30 102 16 0 45 -63
64 -95 29z"/>
<path d="M5335 2528 c-34 -18 -73 -59 -85 -89 -24 -58 28 -136 105 -158 149
-41 231 176 92 242 -40 19 -83 21 -112 5z"/>
<path d="M3075 1054 c-757 -17 -1372 -64 -1438 -109 -16 -11 -16 -13 1 -28 39
-35 182 -57 642 -97 431 -38 829 -51 1355 -44 471 5 743 17 1075 45 370 31
585 69 598 107 13 40 -270 80 -808 112 -174 10 -1159 20 -1425 14z"/>
</g>
</svg>
